<svg xmlns="http://www.w3.org/2000/svg" viewBox="0 0 512 512"><g data-name="43. Astronaut helmet in profile"><path fill="#d1e7ff" d="M467.44,443.52V472a16,16,0,0,1-16,16H60.56a16,16,0,0,1-16-16V443.52c0-44.27,31.88-80.92,73.41-87.15V163.351C117.97,86.944,179.49,24.056,255.9,24A138.033,138.033,0,0,1,394.03,162.03V356.37C435.56,362.6,467.44,399.25,467.44,443.52Z"/><path fill="#e8f3ff" d="M419.78,386.75H168.57c-47.5,0-86.01,39.44-86.01,88.1V488h-22a16,16,0,0,1-16-16V443.52c0-44.27,31.88-80.92,73.41-87.15V163.51c0-78.195,65.06-141.5,141.22-139.47,16.08.36,19.21,22.98,3.8,27.6-55.96,16.76-98.73,68.53-98.73,132.39V355.42H381.43a84.036,84.036,0,0,1,43.79,12.26C434.19,373.12,430.27,386.79,419.78,386.75Z"/><path fill="#b9dcff" d="M190 444.99V488H138.53V444.99a16 16 0 0 1 16-16H174A16 16 0 0 1 190 444.99zM372 444.99V488H240V444.99a16 16 0 0 1 16-16H356A16 16 0 0 1 372 444.99zM394.03 162.03V306.81H117.97V162.03c7.51-8.39 56.9-61.68 138.03-61.68S386.52 153.64 394.03 162.03z"/><path fill="#d1e7ff" d="M182.13,116.07a137.291,137.291,0,0,0-17.87,67.96V306.81H117.97V162.03C122.82,156.61,145.11,132.49,182.13,116.07Z"/><path fill="#2e58ff" d="M410.025,343.586V162.025C410.025,77.1,340.93,8,256,8S101.975,77.1,101.975,162.025V343.586C59.6,356.233,28.557,396.243,28.557,443.519V488a16,16,0,0,0,16,16H467.443a16,16,0,0,0,16-16V443.519C483.443,396.243,452.4,356.233,410.025,343.586Zm-32-175.236V290.811H133.975V168.349C201.767,99.079,310.141,98.987,378.025,168.35ZM133.975,322.811h244.05v16.607H133.975ZM256,40a122.231,122.231,0,0,1,114.85,80.8c-70.194-48.608-159.378-48.7-229.7,0A122.232,122.232,0,0,1,256,40ZM154.532,472V444.987H174V472ZM256,472V444.987H356V472Zm195.443,0H388V428.987a16,16,0,0,0-16-16H240a16,16,0,0,0-16,16V472H206V428.987a16,16,0,0,0-16-16H138.532a16,16,0,0,0-16,16V472H60.557V443.519c0-39.757,31.407-72.1,70.011-72.1H381.433c38.6,0,70.01,32.344,70.01,72.1Z"/></g></svg>